<?xml version="1.0" standalone="no"?>
<!DOCTYPE svg PUBLIC "-//W3C//DTD SVG 20010904//EN"
 "http://www.w3.org/TR/2001/REC-SVG-20010904/DTD/svg10.dtd">
<svg version="1.0" xmlns="http://www.w3.org/2000/svg"
 width="152.000000pt" height="152.000000pt" viewBox="0 0 152.000000 152.000000"
 preserveAspectRatio="xMidYMid meet">
<metadata>
Created by potrace 1.14, written by Peter Selinger 2001-2017
</metadata>
<g transform="translate(0.000000,152.000000) scale(0.100000,-0.100000)"
fill="#000000" stroke="none">
<path d="M807 1294 c-1 -1 -23 -4 -48 -7 -149 -18 -292 -96 -385 -211 -249
-306 -92 -758 287 -830 19 -3 45 -8 59 -11 85 -18 260 0 355 36 57 22 92 24
97 8 3 -10 58 -24 58 -15 0 1 4 27 10 57 5 30 12 68 14 84 3 17 8 42 12 58 5
24 3 27 -20 27 -16 0 -32 -11 -48 -33 -62 -87 -179 -139 -321 -141 -97 -1
-147 8 -211 40 -160 78 -249 268 -219 467 35 238 190 387 402 388 148 0 284
-69 352 -178 14 -23 28 -33 45 -33 19 0 24 4 20 18 -5 19 -13 58 -21 112 -3
19 -11 40 -18 47 -30 29 -145 80 -222 98 -28 7 -194 23 -198 19z"/>
</g>
</svg>
